<svg width="30" height="21" viewBox="0 0 30 21" fill="none" xmlns="http://www.w3.org/2000/svg">
<g filter="url(#filter0_d_6_550)">
<path fill-rule="evenodd" clip-rule="evenodd" d="M25.4935 0.872368C25.6482 0.35921 25.4935 0 24.7713 0H22.364C21.745 0 21.4699 0.325 21.3151 0.684211C21.3151 0.684211 20.0943 3.66053 18.3576 5.57632C17.7902 6.14079 17.5495 6.31184 17.24 6.31184C17.0852 6.31184 16.8617 6.14079 16.8617 5.62763V0.872368C16.8617 0.256579 16.6897 0 16.1739 0H12.391C12.0128 0 11.772 0.290789 11.772 0.547368C11.772 1.12895 12.6318 1.26579 12.7349 2.87368V6.39737C12.7349 7.16711 12.5974 7.30395 12.2879 7.30395C11.4797 7.30395 9.48513 4.32763 8.31589 0.906579C8.07516 0.273685 7.85163 0 7.23262 0H4.82535C4.13756 0 4 0.325 4 0.684211C4 1.31711 4.80815 4.46447 7.80004 8.62105C9.79464 11.4605 12.5974 13 15.1422 13C16.6725 13 16.8617 12.6579 16.8617 12.0763V9.92105C16.8617 9.23684 16.9992 9.1 17.4979 9.1C17.859 9.1 18.4608 9.27105 19.888 10.6395C21.5215 12.2645 21.7966 13 22.7079 13H25.1152C25.803 13 26.1469 12.6579 25.9405 11.9908C25.717 11.3237 24.9432 10.3487 23.9115 9.18553C23.3441 8.51842 22.5016 7.81711 22.2608 7.45789C21.8998 6.99605 22.0029 6.79079 22.2608 6.39737C22.2608 6.38026 25.2012 2.275 25.4935 0.872368Z" fill="white"/>
</g>
<defs>
<filter id="filter0_d_6_550" x="0" y="0" width="30" height="21" filterUnits="userSpaceOnUse" color-interpolation-filters="sRGB">
<feFlood flood-opacity="0" result="BackgroundImageFix"/>
<feColorMatrix in="SourceAlpha" type="matrix" values="0 0 0 0 0 0 0 0 0 0 0 0 0 0 0 0 0 0 127 0" result="hardAlpha"/>
<feOffset dy="4"/>
<feGaussianBlur stdDeviation="2"/>
<feComposite in2="hardAlpha" operator="out"/>
<feColorMatrix type="matrix" values="0 0 0 0 0 0 0 0 0 0 0 0 0 0 0 0 0 0 0.25 0"/>
<feBlend mode="normal" in2="BackgroundImageFix" result="effect1_dropShadow_6_550"/>
<feBlend mode="normal" in="SourceGraphic" in2="effect1_dropShadow_6_550" result="shape"/>
</filter>
</defs>
</svg>
