<svg width="22" height="13" viewBox="0 0 22 13" fill="none" xmlns="http://www.w3.org/2000/svg">
<path fill-rule="evenodd" clip-rule="evenodd" d="M21.4935 0.872368C21.6482 0.35921 21.4935 0 20.7713 0H18.364C17.745 0 17.4699 0.325 17.3151 0.684211C17.3151 0.684211 16.0943 3.66053 14.3576 5.57632C13.7902 6.14079 13.5495 6.31184 13.24 6.31184C13.0852 6.31184 12.8617 6.14079 12.8617 5.62763V0.872368C12.8617 0.256579 12.6897 0 12.1739 0H8.39105C8.01276 0 7.77204 0.290789 7.77204 0.547368C7.77204 1.12895 8.63178 1.26579 8.73494 2.87368V6.39737C8.73494 7.16711 8.59739 7.30395 8.28788 7.30395C7.47973 7.30395 5.48513 4.32763 4.31589 0.906579C4.07516 0.273685 3.85163 0 3.23262 0H0.825349C0.137558 0 0 0.325 0 0.684211C0 1.31711 0.808154 4.46447 3.80004 8.62105C5.79464 11.4605 8.59739 13 11.1422 13C12.6725 13 12.8617 12.6579 12.8617 12.0763V9.92105C12.8617 9.23684 12.9992 9.1 13.4979 9.1C13.859 9.1 14.4608 9.27105 15.888 10.6395C17.5215 12.2645 17.7966 13 18.7079 13H21.1152C21.803 13 22.1469 12.6579 21.9405 11.9908C21.717 11.3237 20.9432 10.3487 19.9115 9.18553C19.3441 8.51842 18.5016 7.81711 18.2608 7.45789C17.8998 6.99605 18.0029 6.79079 18.2608 6.39737C18.2608 6.38026 21.2012 2.275 21.4935 0.872368Z" fill="white"/>
</svg>
