<svg width="19" height="24" viewBox="0 0 19 24" fill="none" xmlns="http://www.w3.org/2000/svg">
<path d="M18.2062 21.5127L16.5113 22.6071C11.8006 25.4319 8.16288 21.4799 6.20272 18.1372L6.18999 18.1454L2.94736 13.1238L2.95245 13.1205C0.76513 9.95333 -1.16972 5.14488 3.25336 2.07589L4.94826 0.981421C5.51442 0.615831 6.26936 0.778338 6.63495 1.34449L9.07836 5.12836C9.44395 5.69451 9.28144 6.44946 8.71529 6.81505C8.53411 6.91545 6.90519 8.02719 6.74595 8.04201C6.74562 8.0415 6.70068 8.05681 6.65478 8.06841C6.64281 8.0711 6.63032 8.07411 6.61835 8.07679C4.42942 7.96156 4.64137 9.53882 5.61525 11.3866C5.61704 11.3905 5.61934 11.3941 5.62081 11.3975L8.86345 16.419L8.84766 16.4292C8.8798 16.4734 8.92861 16.5378 8.98936 16.614C9.33009 17.0411 10.4669 18.4641 11.4108 18.2456C11.5105 18.2224 12.0499 18.079 12.4264 17.0711C12.4337 17.0613 12.4416 17.0512 12.449 17.0414C12.4784 17.0043 12.5109 16.9696 12.5106 16.9691C12.5896 16.8301 14.2731 15.8029 14.4391 15.679C15.0053 15.3134 15.7602 15.476 16.1258 16.0421L18.5692 19.826C18.9348 20.3921 18.7723 21.1471 18.2062 21.5127Z" fill="white"/>
</svg>
